<svg width="104" height="104" viewBox="0 0 104 104" fill="none" xmlns="http://www.w3.org/2000/svg">
<path d="M102.75 51.9997C102.75 80.0282 80.0287 102.75 52.0003 102.75C23.9718 102.75 1.25 80.0282 1.25 51.9997C1.25 23.9718 23.9718 1.25 52.0003 1.25C80.0287 1.25 102.75 23.9718 102.75 51.9997Z" fill="#FBBC05" stroke="black" stroke-width="1.5"/>
<mask id="mask0_1144_7551" style="mask-type:luminance" maskUnits="userSpaceOnUse" x="2" y="2" width="100" height="100">
<path d="M102 51.9997C102 79.614 79.6145 102 52.0003 102C24.386 102 2 79.614 2 51.9997C2 24.386 24.386 2 52.0003 2C79.6145 2 102 24.386 102 51.9997Z" fill="white"/>
</mask>
<g mask="url(#mask0_1144_7551)">
<path d="M51.5208 136.939C38.5528 136.939 28.0396 126.427 28.0396 113.458V65.8437C28.0396 52.8752 38.5528 42.3624 51.5208 42.3624C64.4892 42.3624 75.002 52.8757 75.002 65.8437V113.458C75.002 126.427 64.4892 136.939 51.5208 136.939Z" fill="#9A4B3A"/>
<path d="M51.5208 91.4861C38.5528 91.4861 28.0396 80.9733 28.0396 68.0049V44.2661C28.0396 31.2981 38.5528 20.7848 51.5208 20.7848C64.4892 20.7848 75.002 31.2981 75.002 44.2661V68.0049C75.002 80.9733 64.4892 91.4861 51.5208 91.4861Z" fill="#8B4535"/>
<path d="M78.8948 40.6021C78.8948 44.3513 78.7737 48.1 78.5294 51.8406C78.2851 55.5811 77.9177 59.3134 77.4316 63.0346C76.7018 68.5945 74.2267 73.5427 70.5986 77.3574C70.0635 77.9226 69.5008 78.4633 68.9161 78.9765C64.3768 82.9587 58.4381 85.3459 52.0001 85.3459C44.7327 85.3459 38.1 82.3056 33.4043 77.3574C29.7762 73.5427 27.301 68.5945 26.5707 63.0346C26.0821 59.3134 25.7172 55.5811 25.4729 51.8406C25.2291 48.1 25.1055 44.3513 25.1055 40.6021C25.1055 34.4661 27.5918 28.9113 31.6124 24.8907C35.6325 20.8701 41.1874 18.3842 47.3238 18.3842H56.679C68.9488 18.3842 78.8948 28.3297 78.8948 40.6021Z" fill="#9A4B3A"/>
<path d="M43.4484 47.3813C43.4484 48.9482 42.1778 50.2183 40.6109 50.2183C39.0439 50.2183 37.7739 48.9482 37.7739 47.3813C37.7739 45.8144 39.0439 44.5438 40.6109 44.5438C42.1778 44.5438 43.4484 45.8144 43.4484 47.3813Z" fill="#373254"/>
<path d="M41.2528 47.1066C41.2528 47.6126 40.8425 48.0225 40.3365 48.0225C39.8305 48.0225 39.4207 47.6126 39.4207 47.1066C39.4207 46.6007 39.8305 46.1903 40.3365 46.1903C40.8425 46.1903 41.2528 46.6007 41.2528 47.1066Z" fill="white"/>
<path d="M66.2267 47.3813C66.2267 48.9482 64.9562 50.2183 63.3892 50.2183C61.8223 50.2183 60.5522 48.9482 60.5522 47.3813C60.5522 45.8144 61.8223 44.5438 63.3892 44.5438C64.9562 44.5438 66.2267 45.8144 66.2267 47.3813Z" fill="#373254"/>
<path d="M64.0312 47.1066C64.0312 47.6126 63.6208 48.0225 63.1148 48.0225C62.6089 48.0225 62.199 47.6126 62.199 47.1066C62.199 46.6007 62.6089 46.1903 63.1148 46.1903C63.6208 46.1903 64.0312 46.6007 64.0312 47.1066Z" fill="white"/>
<path d="M70.5969 77.3574C70.0618 77.9226 69.4991 78.4633 68.9144 78.9765C64.3756 82.9587 58.4364 85.3459 51.9985 85.3459C44.7315 85.3459 38.0983 82.3056 33.4026 77.3574C33.466 66.7174 44.6109 57.1399 47.5061 55.9818C50.7744 54.6755 50.2368 41.4229 49.8744 36.0249C49.8714 35.9753 49.8688 35.9288 49.8688 35.8793C49.8688 34.7161 48.5789 20.7852 51.9985 20.7852C55.418 20.7852 54.2078 34.7953 54.1255 36.0249C53.7632 41.4229 53.225 54.6755 56.4939 55.9818C59.3891 57.1399 70.534 66.7174 70.5969 77.3574Z" fill="white"/>
<path d="M51.9999 71.8987C48.403 71.8987 45.4868 68.983 45.4868 65.3861C45.4868 64.8908 45.8885 64.4892 46.3838 64.4892H57.6156C58.1108 64.4892 58.5125 64.8908 58.5125 65.3861C58.5125 68.983 55.5968 71.8987 51.9999 71.8987Z" fill="#352F50"/>
<path d="M53.9216 66.6846H50.0794C48.8666 66.6846 47.8838 65.7018 47.8838 64.489H56.1167C56.1167 65.7018 55.1339 66.6846 53.9216 66.6846Z" fill="#3C54AD"/>
<path d="M37.1791 72.272C37.2123 72.3298 37.6866 73.1715 38.7455 74.0214C39.8004 74.8713 41.466 75.7177 43.7627 75.7146C46.059 75.7141 48.9425 74.8831 52.497 72.5388C52.8501 72.3057 52.9477 71.8299 52.7147 71.4768C52.4816 71.1231 52.0063 71.0255 51.6527 71.2586C48.2709 73.4879 45.6813 74.1814 43.7627 74.1814C41.8437 74.1783 40.5527 73.5001 39.7043 72.825C39.2822 72.4872 38.977 72.1488 38.7823 71.901C38.6847 71.7768 38.6142 71.6756 38.5708 71.6091L38.5253 71.5371L38.5171 71.5233L38.5161 71.5223L38.1133 71.7512L38.5181 71.5253L38.5161 71.5223L38.1133 71.7512L38.5181 71.5253C38.3121 71.1558 37.845 71.0229 37.4755 71.2289C37.1055 71.4349 36.9726 71.902 37.1791 72.272Z" fill="#342B4C"/>
<path d="M65.4814 71.5253L65.8857 71.7507L65.4835 71.5223L65.4814 71.5253L65.8857 71.7507L65.4835 71.5223L65.4676 71.5488C65.3808 71.6909 64.9377 72.3625 64.0918 72.9814C63.2424 73.6003 62.0087 74.1788 60.2373 74.1814C58.3188 74.1814 55.7286 73.4879 52.3469 71.2586C51.9937 71.0255 51.5179 71.1231 51.2849 71.4768C51.0518 71.8299 51.1494 72.3057 51.5031 72.5388C55.0571 74.8831 57.9406 75.7141 60.2373 75.7146C62.5336 75.7177 64.1997 74.8713 65.254 74.0214C66.3135 73.1715 66.7877 72.3298 66.821 72.272C67.0269 71.902 66.894 71.4349 66.5245 71.2289C66.1545 71.0229 65.6874 71.1558 65.4814 71.5253Z" fill="#342B4C"/>
<path d="M52 85.3459C51.9995 85.3459 51.9995 85.3459 51.999 85.3459C58.4365 85.3459 64.3756 82.9587 68.9145 78.9765C69.4991 78.4633 70.0618 77.9226 70.5969 77.3574C70.5847 75.2487 70.137 73.1824 69.4046 71.2148C69.815 70.8351 70.2136 70.4416 70.5985 70.0353C73.6475 66.8293 75.8829 62.822 76.9516 58.324C77.2148 60.0673 77.3794 61.6716 77.4254 63.0842C76.6869 68.6237 74.2153 73.554 70.5985 77.3574C70.0634 77.9226 69.5007 78.4633 68.916 78.9765C64.3767 82.9587 58.438 85.3459 52 85.3459ZM33.4026 77.3559C29.7827 73.5489 27.3101 68.6134 26.5752 63.0673C26.6222 61.6572 26.7868 60.055 27.049 58.3169C28.1171 62.8179 30.353 66.8272 33.4041 70.0353C33.789 70.4405 34.1861 70.833 34.5965 71.2122C33.8636 73.1799 33.4154 75.2472 33.4026 77.3559Z" fill="#934636"/>
<path d="M51.999 85.3459C44.7325 85.3459 38.0993 82.3051 33.4041 77.3574C33.4036 77.3569 33.4031 77.3564 33.4026 77.3559C33.4154 75.2472 33.8636 73.1799 34.5964 71.2122C39.1905 75.4613 45.3279 78.0243 52 78.0243C58.438 78.0243 64.3766 75.6366 68.916 71.6548C69.0805 71.5102 69.2436 71.3635 69.4046 71.2148C70.1369 73.1824 70.5846 75.2487 70.5969 77.3574C70.0618 77.9226 69.4991 78.4633 68.9144 78.9765C64.3756 82.9587 58.4364 85.3459 51.9985 85.3459" fill="#F8F1EF"/>
<path d="M40.1835 19.896C34.5357 28.7462 25.9185 54.8697 26.5992 65.0896C27.3321 76.0669 22.5735 74.9691 23.0427 68.7478C23.1827 66.8763 22.8342 65.6359 22.09 64.5213C20.3641 61.9337 16.5137 60.0428 11.7797 52.5673C9.64746 49.1998 9.05718 46.9823 9.40317 45.2482C10.1442 41.477 15.2897 40.001 18.5498 33.9852C21.0474 29.3748 27.214 25.2638 32.5103 22.3956C35.2742 20.8972 37.8014 19.7421 39.4455 19.0287C39.6653 18.9352 39.8789 18.976 40.0353 19.0941C40.2658 19.2673 40.3701 19.5995 40.1835 19.896Z" fill="#834031"/>
<path d="M11.4862 45.4436C10.6976 45.4436 9.99794 45.3623 9.40356 45.2484C10.1446 41.4772 15.2901 40.0012 18.5502 33.9854C21.0478 29.375 27.2144 25.2639 32.5107 22.3958C25.1988 42.0859 16.5412 45.4436 11.4862 45.4436Z" fill="#7C3B2E"/>
<path d="M63.8161 19.896C69.4639 28.7462 78.0811 54.8697 77.4003 65.0896C76.668 76.0669 81.4266 74.9691 80.9574 68.7478C80.8174 66.8763 81.166 65.6359 81.9096 64.5213C83.636 61.9337 87.4859 60.0428 92.2199 52.5673C94.3526 49.1998 94.9424 46.9823 94.5964 45.2482C93.8559 41.477 88.7099 40.001 85.4497 33.9852C82.9526 29.3748 76.7861 25.2638 71.4893 22.3956C68.7259 20.8972 66.1982 19.7421 64.5546 19.0287C64.3348 18.9352 64.1207 18.976 63.9643 19.0941C63.7338 19.2673 63.6295 19.5995 63.8161 19.896Z" fill="#834031"/>
<path d="M92.5142 45.4436C87.4597 45.4436 78.8017 42.0859 71.4897 22.3958C76.7865 25.2639 82.9531 29.375 85.4502 33.9854C88.7103 40.0012 93.8563 41.4772 94.5969 45.2484C94.0025 45.3623 93.3028 45.4436 92.5142 45.4436Z" fill="#7C3B2E"/>
</g>
</svg>
