<svg width="46" height="45" viewBox="0 0 46 45" fill="none" xmlns="http://www.w3.org/2000/svg">
<rect x="0.5" width="45" height="45" rx="22.5" fill="#A85AEE"/>
<path d="M14.4922 23.9141V20.7891C14.4922 19.8906 15.1016 19.2891 16.0078 19.2891H19.5469V15.7578C19.5469 14.8516 20.1484 14.2422 21.0469 14.2422H24.1719C25.0703 14.2422 25.6719 14.8516 25.6719 15.7578V19.2891H29.2109C30.1172 19.2891 30.7266 19.8906 30.7266 20.7891V23.9141C30.7266 24.8125 30.1172 25.4141 29.2109 25.4141H25.6719V28.9531C25.6719 29.8594 25.0703 30.4688 24.1719 30.4688H21.0469C20.1484 30.4688 19.5469 29.8594 19.5469 28.9531V25.4141H16.0156C15.1094 25.4141 14.4922 24.8125 14.4922 23.9141Z" fill="white"/>
</svg>
