<svg width="46" height="45" viewBox="0 0 46 45" fill="none" xmlns="http://www.w3.org/2000/svg">
<rect x="0.5" width="45" height="45" rx="22.5" fill="#A85AEE"/>
<path d="M20.1719 30.8438C19.5156 30.8438 19.1172 30.4766 19.125 29.8359L19.2734 21.0625C19.2734 20.7891 19.1562 20.5859 18.9141 20.4766C17.8828 20.0234 17.4375 19.5469 17.5 18.1797L17.7109 13.3828C17.7266 13.0391 17.9297 12.8438 18.25 12.8438C18.5625 12.8438 18.7422 13.0469 18.7422 13.3984L18.6875 18.0625C18.6875 18.3359 18.8672 18.5078 19.125 18.5078C19.3906 18.5078 19.5781 18.3438 19.5781 18.0859L19.6562 13.2578C19.6641 12.9219 19.8516 12.7266 20.1719 12.7266C20.4922 12.7266 20.6875 12.9219 20.6953 13.2578L20.7734 18.0859C20.7734 18.3438 20.9609 18.5078 21.2266 18.5078C21.4844 18.5078 21.6562 18.3359 21.6562 18.0625L21.6016 13.3984C21.6016 13.0469 21.7891 12.8438 22.0938 12.8438C22.4141 12.8438 22.6172 13.0391 22.6328 13.3828L22.8516 18.1797C22.9062 19.5469 22.4609 20.0234 21.4297 20.4766C21.1875 20.5859 21.0703 20.7891 21.0703 21.0625L21.2266 29.8359C21.2344 30.4766 20.8281 30.8438 20.1719 30.8438ZM26.2812 24.0312C26.2969 23.75 26.1719 23.5312 25.8906 23.3359L25.4297 23.0234C25.0391 22.7656 24.8438 22.3672 24.8438 21.8281V21.4453C24.8438 18.3203 25.6719 15.0156 26.9297 13.25C27.1797 12.8828 27.375 12.7266 27.6719 12.7266C27.9531 12.7266 28.2266 12.9141 28.2266 13.3125V29.8828C28.2266 30.5078 27.8203 30.8438 27.1562 30.8438C26.5078 30.8438 26.0938 30.4766 26.1172 29.7969L26.2812 24.0312Z" fill="white"/>
</svg>
