<svg width="75" height="82" viewBox="0 0 75 82" fill="none" xmlns="http://www.w3.org/2000/svg">
<path fill-rule="evenodd" clip-rule="evenodd" d="M37.8044 81.2C58.291 81.2 75 64.491 75 44.0045C75 23.5179 58.291 6.80898 37.8044 6.80898C17.3178 6.80898 0.608887 23.5179 0.608887 44.0045C0.608887 64.491 17.3178 81.2 37.8044 81.2Z" fill="#FFB33F"/>
<path fill-rule="evenodd" clip-rule="evenodd" d="M36.5419 37.6396C36.5419 37.6396 23.5602 35.5112 12.0677 38.5615C0.575273 41.6122 -0.204793 49.6282 4.83179 52.2533C9.86882 54.8782 30.0865 53.5303 30.0865 53.5303L36.5419 37.6396Z" fill="#74711C"/>
<path fill-rule="evenodd" clip-rule="evenodd" d="M52.4135 23.799C52.4135 23.799 53.7379 17.175 56.9676 11.7923C60.1969 6.40995 55.5597 9.22537 55.2285 9.80508C55.2285 9.80508 54.895 2.97804 52.8592 2.31519C50.8234 1.65279 52.1964 6.29229 52.1964 6.29229C52.1964 6.29229 47.9389 -0.534767 39.2751 0.0335865C31.5289 0.541515 28.1361 7.86014 32.612 10.5561C32.3685 12.1048 32.429 14.4855 34.6815 15.6726C36.7827 16.7798 37.5664 14.485 37.8572 12.4701C41.5253 14.3996 41.2159 17.2196 41.2159 17.2196C41.2159 17.2196 47.6436 25.4091 52.4135 23.799Z" fill="#433A58"/>
<path fill-rule="evenodd" clip-rule="evenodd" d="M49.8143 25.4089C49.8143 25.4089 49.0683 31.519 49.2546 36.8827L40.2532 36.4629C40.2532 36.4629 41.1859 31.1923 41.0923 28.5341C40.9992 25.8754 49.8143 25.4089 49.8143 25.4089Z" fill="#FFC195"/>
<path fill-rule="evenodd" clip-rule="evenodd" d="M49.8143 25.4083C49.8143 25.4083 49.6857 26.4623 49.5485 28.0778C47.9002 30.0796 43.954 34.3102 40.7261 33.3557C40.9405 31.7347 41.1377 29.8256 41.0923 28.5335C40.9991 25.8749 49.8143 25.4083 49.8143 25.4083Z" fill="#D16E5B"/>
<path fill-rule="evenodd" clip-rule="evenodd" d="M35.0175 9.57739C35.0175 9.57739 32.8186 19.5079 33.386 23.1961C33.9535 26.8847 36.8616 29.5802 39.9828 30.2185C43.1039 30.8568 49.1327 29.9345 50.6224 26.5299C50.6224 26.5299 54.3692 27.7756 55.5354 24.5109C56.7012 21.2461 52.7368 19.2408 50.8246 21.899C50.8246 21.899 50.3117 20.8731 51.5711 14.9965C51.5711 14.9965 42.8959 15.6962 40.9373 8.97997C40.9373 8.97997 37.6257 10.7523 35.0175 9.57739Z" fill="#FFC195"/>
<path fill-rule="evenodd" clip-rule="evenodd" d="M38.6785 36.183C38.6785 36.183 38.5386 34.2707 39.2382 34.1776C39.9379 34.084 50.1519 33.8046 50.479 34.084C50.8052 34.3639 49.9656 36.5564 49.9656 36.5564C49.9656 36.5564 57.0807 38.7031 59.5631 44.8745C61.0828 48.6526 60.1578 63.4833 59.2119 74.4225C53.1581 78.6917 45.775 81.2 37.8044 81.2C32.4434 81.2 27.3478 80.0651 22.7442 78.023C22.1649 68.0189 21.3231 52.4444 21.448 48.3333C21.6356 42.1413 26.6077 38.6699 26.6077 38.6699L38.6785 36.183Z" fill="#A6A828"/>
<path fill-rule="evenodd" clip-rule="evenodd" d="M60.3692 53.4507C60.3583 59.628 59.789 67.7495 59.2116 74.4225C53.1583 78.6917 45.7751 81.2 37.8046 81.2C32.8375 81.2 28.0985 80.2255 23.767 78.4583C22.8311 69.3886 21.4781 55.3752 21.4373 49.7598C23.8474 49.1747 26.8573 49.708 30.5654 52.3508C43.5689 61.618 57.7373 47.0534 57.7373 47.0534L60.3692 53.4507Z" fill="#74711C"/>
<path fill-rule="evenodd" clip-rule="evenodd" d="M17.5447 39.1515C17.5447 39.1515 14.2132 48.2597 16.8919 58.9884C19.5696 69.7176 27.7487 76.5397 39.5042 74.8255C51.2593 73.111 50.8513 63.3967 47.7492 59.6413C44.6471 55.8865 38.8509 47.6414 38.8509 47.6414L28.8845 38.2011L17.5447 39.1515Z" fill="#A36159"/>
<path fill-rule="evenodd" clip-rule="evenodd" d="M16.5688 38.9693C16.5688 38.9693 14.8682 42.0941 15.1899 43.7028C15.512 45.3111 25.1654 47.7036 30.4477 45.1271C35.7297 42.5507 34.4458 41.175 34.4458 41.175L30.9398 37.0666L16.5688 38.9693Z" fill="#433A58"/>
<path fill-rule="evenodd" clip-rule="evenodd" d="M8.86429 41.274C8.86429 41.274 34.7586 44.5374 38.4477 44.7505C38.8007 44.7709 39.081 44.8531 39.2982 44.9849L39.2991 44.9845C39.2991 44.9845 44.7568 47.5841 45.4097 49.624C46.0626 51.6634 45.029 58.436 44.9072 58.7604C44.7855 59.0846 43.0818 59.8147 41.5807 59.4905C40.0801 59.1661 36.973 53.8931 35.2611 51.9455C30.916 52.2381 9.57802 54.5492 5.38784 53.6184C0.918252 52.6251 -3.48001 42.0545 8.86429 41.274Z" fill="#FFC195"/>
<path fill-rule="evenodd" clip-rule="evenodd" d="M7.5735 37.6632C7.5735 37.6632 11.5452 30.31 15.4632 28.4314C19.3813 26.5528 16.5985 31.3086 14.3401 37.0085C12.7023 41.1423 11.8286 42.2904 10.6506 42.6766C8.44624 43.3994 5.42684 40.9879 7.5735 37.6632Z" fill="#BC7E68"/>
<path fill-rule="evenodd" clip-rule="evenodd" d="M29.3796 25.6077C25.7128 25.4474 31.4386 32.0491 32.6916 33.8068C33.9446 35.5646 37.3234 39.3191 39.8185 37.798C44.9646 34.6605 34.1459 25.8158 29.3796 25.6077Z" fill="#A36159"/>
<path fill-rule="evenodd" clip-rule="evenodd" d="M16.804 28.1235C16.804 28.1235 24.3716 25.3331 27.2697 25.2259C30.1678 25.1182 32.3685 31.2906 32.3685 31.2906C32.3685 31.2906 35.039 32.7858 33.9187 37.1636C32.7979 41.5414 29.1742 42.5291 27.6454 43.0443C25.4765 43.7753 17.4542 42.3155 15.5469 39.7991C13.6397 37.2831 16.0748 35.4167 16.0748 35.4167C16.0748 35.4167 15.8718 29.6941 16.804 28.1235Z" fill="#BC7E68"/>
<path fill-rule="evenodd" clip-rule="evenodd" d="M21.4183 26.569C22.709 26.1701 24.0811 25.7821 25.2632 25.5254C25.0751 27.0465 25.1333 29.0255 25.777 31.4943C25.777 31.4943 26.1877 34.2179 28.3453 34.8971C30.2866 35.5082 33.8112 36.6054 31.2398 41.3298C29.9141 42.3479 28.473 42.7655 27.6456 43.0444C26.6125 43.3924 24.2019 43.4369 21.8576 42.7205C18.3394 41.6456 22.6649 38.4194 23.1015 34.3224C23.415 31.3807 22.7912 28.5157 21.4183 26.569Z" fill="#D49983"/>
<path fill-rule="evenodd" clip-rule="evenodd" d="M31.8212 47.326C31.8212 47.326 29.7227 39.2096 33.7348 38.7375C37.7465 38.2659 39.3825 40.7915 38.169 44.5255C36.9555 48.2596 32.0434 48.7135 31.8212 47.326Z" fill="#BC7E68"/>
<path fill-rule="evenodd" clip-rule="evenodd" d="M21.0993 42.2505C24.4258 43.4599 26.1776 51.0307 22.3859 51.445C20.5564 51.6449 19.0467 49.7345 18.3248 47.4806C17.4129 44.6343 18.1662 41.1842 21.0993 42.2505Z" fill="#BC7E68"/>
<path fill-rule="evenodd" clip-rule="evenodd" d="M23.8872 70.8593C23.8872 70.8593 20.8128 65.1235 25.0403 61.3858C29.2682 57.6482 39.0646 64.0372 39.0646 64.0372C39.0646 64.0372 36.3155 55.9821 40.9105 55.0921C43.2207 54.6447 44.6768 58.8693 45.2884 63.3656C45.8935 67.813 45.6727 72.5266 44.6355 73.2503C42.5497 74.7064 35.9412 76.7445 23.8872 70.8593Z" fill="#BC7E68"/>
<path fill-rule="evenodd" clip-rule="evenodd" d="M48.2932 67.295C48.2932 67.295 43.5001 57.4741 45.5564 53.5341C47.6122 49.5948 53.556 57.6494 53.84 64.0384C54.1239 70.428 50.2586 71.3503 48.2932 67.295Z" fill="#BC7E68"/>
<path fill-rule="evenodd" clip-rule="evenodd" d="M28.4119 74.765V72.4742C28.4119 72.4742 28.8585 70.6675 27.56 68.2741C26.262 65.8808 25.775 64.0554 25.6532 62.2704C25.5319 60.4854 22.8951 61.2153 24.3961 66.043C25.8968 70.8705 23.7874 70.8705 23.7874 70.8705L28.4119 74.765Z" fill="#FFC195"/>
<path fill-rule="evenodd" clip-rule="evenodd" d="M22.9111 67.4181L22.2587 66.0837C22.2587 66.0837 21.1724 65.1429 20.3632 62.8617C20.3632 62.8617 20.4814 60.933 19.57 60.8986C18.6591 60.864 18.2897 61.5332 18.2897 61.5332C18.2897 61.5332 17.183 62.8939 17.0099 63.6781C16.8368 64.4623 16.8486 65.0387 16.8486 65.0387C16.8486 65.0387 16.164 66.2727 16.2517 67.5007C16.3398 68.7288 16.0926 69.6751 16.4761 70.9058C16.8591 72.1366 18.1448 73.59 18.1448 73.59L22.9111 67.4181Z" fill="#FFC195"/>
<path fill-rule="evenodd" clip-rule="evenodd" d="M27.4515 74.8531L28.2833 72.6043C28.2833 72.6043 23.2199 67.7899 22.2722 66.1127C21.2877 64.3685 18.1216 71.9734 18.1216 73.3521C18.1216 74.7314 20.5926 76.7641 25.1985 77.0461L27.4515 74.8531Z" fill="#FFC195"/>
<path fill-rule="evenodd" clip-rule="evenodd" d="M51.2332 67.2978C51.2332 67.2978 49.629 74.8246 48.7654 75.1949C47.9017 75.565 34.1881 73.6601 28.2833 72.6038L25.1985 77.0457C25.1985 77.0457 29.5341 79.0303 34.676 81.0701C35.7073 81.156 36.7509 81.2 37.8045 81.2C46.497 81.2 54.4916 78.2166 60.8235 73.2194C61.1901 71.7974 61.4213 70.8197 61.4213 70.8197L51.2332 67.2978Z" fill="#FFC195"/>
<path fill-rule="evenodd" clip-rule="evenodd" d="M21.18 32.1949C21.5594 32.1426 21.9128 32.4107 21.9651 32.79L21.9992 33.0385C22.0514 33.4183 21.7838 33.7713 21.4045 33.8236C21.0251 33.8763 20.6717 33.6082 20.6194 33.2289L20.5849 32.9799C20.5326 32.6006 20.8007 32.2476 21.18 32.1949Z" fill="#433A58"/>
<path fill-rule="evenodd" clip-rule="evenodd" d="M27.177 30.7583H27.1775C27.5241 30.5961 27.9407 30.7474 28.1029 31.0941L28.2097 31.3217C28.3719 31.6688 28.2206 32.0854 27.8735 32.2476C27.5268 32.4098 27.1102 32.2585 26.9476 31.9119L26.8413 31.6842C26.6791 31.3371 26.8304 30.9205 27.177 30.7583Z" fill="#433A58"/>
<path fill-rule="evenodd" clip-rule="evenodd" d="M22.1898 26.7124C22.1898 26.7124 22.039 22.3341 24.3337 21.7903C26.6285 21.2469 23.6091 24.8402 23.6091 24.8402C23.6091 24.8402 26.3264 22.8475 27.5039 22.9983C28.6815 23.1492 27.8061 24.7797 24.9979 25.7461C22.1898 26.7124 22.1898 26.7124 22.1898 26.7124Z" fill="#D49983"/>
<path fill-rule="evenodd" clip-rule="evenodd" d="M24.4268 36.6885C24.4268 36.6885 27.28 35.456 28.239 36.0493C29.0836 36.5722 27.7138 37.6085 26.892 37.9102C27.1827 39.0851 28.0678 40.03 28.5957 38.6094L28.8823 38.6712C28.7547 39.3077 27.6743 40.1105 27.1169 39.2618C26.8366 40.9101 25.0874 39.3822 25.082 39.3776L25.2723 39.1555C27.0056 40.6479 26.8756 39.1437 26.6712 37.9761C26.6448 37.982 26.6194 37.9865 26.5953 37.9897C25.8875 38.081 23.8558 37.1906 24.4268 36.6885Z" fill="#433A58"/>
<path fill-rule="evenodd" clip-rule="evenodd" d="M44.8084 62.6119C44.6217 60.4466 43.9116 55.0257 40.849 55.429C36.5312 55.9974 38.9768 63.0825 39.5719 65.3628L39.288 65.4372C38.4275 62.1748 29.2107 59.3117 25.9146 60.7804L25.7952 60.5124C25.8079 60.5069 30.163 58.4621 38.8741 63.7608C38.2735 61.2012 36.6548 55.5021 40.8113 54.9552C44.0997 54.5224 44.902 60.2404 45.1014 62.5865L44.8084 62.6119Z" fill="#433A58"/>
<path fill-rule="evenodd" clip-rule="evenodd" d="M44.8483 69.6834C44.8483 69.6834 45.1609 58.6312 42.2069 57.5884C39.2525 56.5458 41.8939 65.8952 42.4154 69.3013C42.9365 72.7073 44.8483 70.9351 44.8483 69.6834Z" fill="#A36159"/>
<path fill-rule="evenodd" clip-rule="evenodd" d="M52.0637 63.6508C51.7948 62.0953 49.883 53.5718 47.3838 54.3083C45.3475 54.9083 47.775 66.2278 49.4232 67.1286C51.0715 68.0296 52.4826 64.0693 52.0637 63.6508Z" fill="#A36159"/>
<path fill-rule="evenodd" clip-rule="evenodd" d="M48.5195 70.3169C48.5195 70.3169 56.8286 73.5297 60.7793 73.2549C61.4245 72.7475 62.0528 72.2186 62.6625 71.6702C64.6347 66.4141 63.3167 49.0529 60.3586 44.0795C56.9176 38.2928 53.915 44.3907 52.5075 48.8003C51.1005 53.21 48.5195 70.3169 48.5195 70.3169Z" fill="#A6A828"/>
<path fill-rule="evenodd" clip-rule="evenodd" d="M50.3028 55.3118C45.9582 48.8731 43.6589 54.513 45.736 60.063C46.0045 61.1583 46.3552 62.2414 46.756 63.2068L46.4847 63.3195C46.0786 62.3404 45.7228 61.2433 45.4507 60.1329C45.0355 58.4405 44.0968 53.409 46.2194 52.5281C48.0117 51.7849 49.8253 53.7444 50.5641 55.1773L50.3028 55.3118Z" fill="#433A58"/>
<path fill-rule="evenodd" clip-rule="evenodd" d="M22.367 48.7233C22.4352 48.965 23.1562 50.3788 22.8145 51.4256L22.5261 51.3715C22.7619 50.1112 22.109 48.8628 22.1072 48.8591L22.367 48.7233ZM23.6332 48.7678C23.635 48.7714 24.2111 50.0263 23.6319 51.2311L23.3675 51.1048C23.8872 50.0235 23.367 48.8905 23.3656 48.8873L23.6332 48.7678ZM20.6365 48.9609C20.6093 49.1871 20.8224 50.8059 21.6565 51.2847L21.4566 51.4987C20.4689 50.8236 20.2713 49.1072 20.3453 49.0022L20.6365 48.9609Z" fill="#433A58"/>
<path fill-rule="evenodd" clip-rule="evenodd" d="M34.4147 45.232L34.1216 45.2316C34.1216 45.2357 34.1207 46.645 33.3266 47.6513L33.5574 47.833C34.3461 47.0643 34.3633 45.4778 34.4147 45.232ZM35.5164 45.859C35.5159 45.8631 35.4437 47.2419 34.3715 48.0402L34.1957 47.8057C35.1579 47.0888 35.2234 45.844 35.2238 45.8408L35.5164 45.859ZM32.7719 44.6391C32.6428 44.8268 32.0799 46.3596 32.5969 47.171L32.3207 47.2674C31.7592 46.2115 32.3807 44.5992 32.4952 44.5405L32.7719 44.6391Z" fill="#433A58"/>
<path fill-rule="evenodd" clip-rule="evenodd" d="M38.0514 15.5366C38.5566 15.5893 38.9264 16.0459 38.8732 16.5506L38.8155 17.1012C38.7624 17.606 38.3062 17.9758 37.801 17.9227C37.2963 17.8699 36.9269 17.4134 36.9796 16.9086L37.0373 16.358C37.0905 15.8532 37.5471 15.4834 38.0514 15.5366Z" fill="#433A58"/>
<path fill-rule="evenodd" clip-rule="evenodd" d="M45.8753 16.3569C46.38 16.4101 46.7499 16.8667 46.6967 17.3714L46.639 17.922C46.5863 18.4268 46.1297 18.7966 45.625 18.7435C45.1202 18.6908 44.7504 18.2342 44.8031 17.7294L44.8613 17.1788C44.914 16.674 45.3705 16.3042 45.8753 16.3569Z" fill="#433A58"/>
<path fill-rule="evenodd" clip-rule="evenodd" d="M37.6028 12.2245C38.3802 12.1232 39.0684 12.4866 39.1398 13.0364C39.2116 13.5865 38.6391 14.114 37.8618 14.2149C37.0844 14.3162 36.3961 13.9527 36.3244 13.403C36.253 12.8533 36.8255 12.3254 37.6028 12.2245Z" fill="#433A58"/>
<path fill-rule="evenodd" clip-rule="evenodd" d="M45.9852 13.1047C45.2456 12.8448 44.4973 13.0575 44.3129 13.5804C44.1289 14.1033 44.5795 14.738 45.3187 14.9988C46.0583 15.2591 46.8071 15.046 46.9911 14.5231C47.1751 14.0002 46.7248 13.365 45.9852 13.1047Z" fill="#433A58"/>
<path fill-rule="evenodd" clip-rule="evenodd" d="M41.646 19.5613C41.7151 19.604 41.7369 19.694 41.6946 19.7635C41.6524 19.8326 41.5624 19.8544 41.4929 19.8121C40.6411 19.2892 39.9123 19.3655 39.4171 19.7049C39.0337 19.9675 38.787 20.3855 38.7297 20.8043C38.6743 21.2105 38.8006 21.6162 39.1595 21.8706C39.6597 22.2246 40.602 22.3013 42.1212 21.7393C42.1976 21.7112 42.2821 21.7502 42.3098 21.8266C42.3375 21.9029 42.2984 21.9874 42.2226 22.0151C40.5975 22.6162 39.5616 22.514 38.991 22.1096C38.5321 21.7848 38.3695 21.2741 38.439 20.7648C38.5067 20.2683 38.7983 19.7726 39.2513 19.4623C39.8333 19.0639 40.677 18.9671 41.646 19.5613Z" fill="#D16E5B"/>
<path fill-rule="evenodd" clip-rule="evenodd" d="M39.3578 25.3521C39.2824 25.3225 39.2447 25.2376 39.2742 25.1617C39.3038 25.0863 39.3892 25.049 39.4646 25.0786C39.475 25.0827 43.0119 26.5106 45.358 23.4507C45.2131 23.4167 45.0691 23.4339 44.9959 23.448C44.9164 23.4635 44.8396 23.4108 44.8242 23.3313C44.8087 23.2518 44.861 23.175 44.9409 23.1595C45.0704 23.1345 45.3666 23.1032 45.6283 23.239C45.7973 23.3267 45.9491 23.4794 46.0304 23.7374C46.0549 23.8151 46.0118 23.8978 45.9345 23.9219C45.8569 23.9464 45.7746 23.9037 45.7501 23.826C45.7183 23.7252 45.6719 23.6493 45.6174 23.5929C43.1364 26.8777 39.3687 25.3566 39.3578 25.3521Z" fill="#D16E5B"/>
</svg>
