<svg width="68" height="12" viewBox="0 0 68 12" fill="none" xmlns="http://www.w3.org/2000/svg">
<path d="M9.44962 11.1988C9.36542 11.1992 9.28327 11.1734 9.21486 11.1252L5.99938 8.83613L2.7839 11.1252C2.7152 11.1741 2.63244 11.2003 2.54757 11.2C2.46271 11.1997 2.38015 11.1729 2.31181 11.1235C2.24348 11.0741 2.19292 11.0046 2.16745 10.9251C2.14197 10.8456 2.1429 10.7603 2.1701 10.6813L3.42419 7.03391L0.173961 4.84527C0.103559 4.79791 0.0504236 4.72969 0.0223183 4.65057C-0.00578693 4.57145 -0.00738897 4.48558 0.0177463 4.40551C0.0428816 4.32543 0.0934369 4.25534 0.162026 4.20549C0.230614 4.15563 0.313642 4.12862 0.398977 4.1284H4.40876L5.61885 0.471666C5.64492 0.392718 5.69578 0.323907 5.76414 0.275103C5.83251 0.2263 5.91486 0.200012 5.99938 0.200012C6.0839 0.200012 6.16625 0.2263 6.23461 0.275103C6.30297 0.323907 6.35384 0.392718 6.3799 0.471666L7.58999 4.12963H11.5998C11.6852 4.12959 11.7684 4.15641 11.8372 4.20617C11.906 4.25593 11.9568 4.32601 11.9821 4.40615C12.0074 4.48629 12.0059 4.57227 11.9778 4.65151C11.9497 4.73075 11.8965 4.79908 11.826 4.84649L8.57456 7.03391L9.8279 10.6803C9.84821 10.7394 9.85392 10.8023 9.84456 10.8639C9.83521 10.9256 9.81106 10.9841 9.7741 11.0348C9.73714 11.0854 9.68844 11.1267 9.63202 11.1553C9.5756 11.1838 9.51308 11.1987 9.44962 11.1988Z" fill="#FFD688"/>
<path d="M23.4496 11.1988C23.3654 11.1992 23.2833 11.1734 23.2149 11.1252L19.9994 8.83613L16.7839 11.1252C16.7152 11.1741 16.6324 11.2003 16.5476 11.2C16.4627 11.1997 16.3801 11.1729 16.3118 11.1235C16.2435 11.0741 16.1929 11.0046 16.1674 10.9251C16.142 10.8456 16.1429 10.7603 16.1701 10.6813L17.4242 7.03391L14.174 4.84527C14.1036 4.79791 14.0504 4.72969 14.0223 4.65057C13.9942 4.57145 13.9926 4.48558 14.0177 4.40551C14.0429 4.32543 14.0934 4.25534 14.162 4.20549C14.2306 4.15563 14.3136 4.12862 14.399 4.1284H18.4088L19.6188 0.471666C19.6449 0.392718 19.6958 0.323907 19.7641 0.275103C19.8325 0.2263 19.9149 0.200012 19.9994 0.200012C20.0839 0.200012 20.1662 0.2263 20.2346 0.275103C20.303 0.323907 20.3538 0.392718 20.3799 0.471666L21.59 4.12963H25.5998C25.6852 4.12959 25.7684 4.15641 25.8372 4.20617C25.906 4.25593 25.9568 4.32601 25.9821 4.40615C26.0074 4.48629 26.0059 4.57227 25.9778 4.65151C25.9497 4.73075 25.8965 4.79908 25.826 4.84649L22.5746 7.03391L23.8279 10.6803C23.8482 10.7394 23.8539 10.8023 23.8446 10.8639C23.8352 10.9256 23.8111 10.9841 23.7741 11.0348C23.7371 11.0854 23.6884 11.1267 23.632 11.1553C23.5756 11.1838 23.5131 11.1987 23.4496 11.1988Z" fill="#FFD688"/>
<path d="M37.4496 11.1988C37.3654 11.1992 37.2833 11.1734 37.2149 11.1252L34.5793 9.24898C34.2322 9.00186 33.7666 9.00186 33.4194 9.24898L30.7839 11.1252C30.7152 11.1741 30.6324 11.2003 30.5476 11.2C30.4627 11.1997 30.3801 11.1729 30.3118 11.1235C30.2435 11.0741 30.1929 11.0046 30.1674 10.9251C30.142 10.8456 30.1429 10.7603 30.1701 10.6813L31.1746 7.75979C31.3218 7.33166 31.163 6.85804 30.7875 6.60517L28.174 4.84527C28.1036 4.79791 28.0504 4.72969 28.0223 4.65057C27.9942 4.57145 27.9926 4.48558 28.0177 4.40551C28.0429 4.32543 28.0934 4.25534 28.162 4.20549C28.2306 4.15563 28.3136 4.12862 28.399 4.1284H31.6864C32.1176 4.1284 32.5002 3.85196 32.6357 3.44257L33.6188 0.471666C33.6449 0.392718 33.6958 0.323907 33.7641 0.275103C33.8325 0.2263 33.9149 0.200012 33.9994 0.200012C34.0839 0.200012 34.1662 0.2263 34.2346 0.275103C34.303 0.323907 34.3538 0.392718 34.3799 0.471666L35.3631 3.4437C35.4985 3.85315 35.8812 4.12963 36.3125 4.12963H39.5998C39.6852 4.12959 39.7684 4.15641 39.8372 4.20617C39.906 4.25593 39.9568 4.32601 39.9821 4.40615C40.0074 4.48629 40.0059 4.57227 39.9778 4.65151C39.9497 4.73075 39.8965 4.79908 39.826 4.84649L37.2117 6.6053C36.8359 6.85808 36.677 7.33181 36.8242 7.76007L37.8279 10.6803C37.8482 10.7394 37.8539 10.8023 37.8446 10.8639C37.8352 10.9256 37.8111 10.9841 37.7741 11.0348C37.7371 11.0854 37.6884 11.1267 37.632 11.1553C37.5756 11.1838 37.5131 11.1987 37.4496 11.1988Z" fill="#FFD688"/>
<path d="M51.4496 11.1988C51.3654 11.1992 51.2833 11.1734 51.2149 11.1252L48.5793 9.24898C48.2322 9.00186 47.7666 9.00186 47.4194 9.24898L44.7839 11.1252C44.7152 11.1741 44.6324 11.2003 44.5476 11.2C44.4627 11.1997 44.3801 11.1729 44.3118 11.1235C44.2435 11.0741 44.1929 11.0046 44.1674 10.9251C44.142 10.8456 44.1429 10.7603 44.1701 10.6813L45.1746 7.75979C45.3218 7.33166 45.163 6.85804 44.7875 6.60517L42.174 4.84527C42.1036 4.79791 42.0504 4.72969 42.0223 4.65057C41.9942 4.57145 41.9926 4.48558 42.0177 4.40551C42.0429 4.32543 42.0934 4.25534 42.162 4.20549C42.2306 4.15563 42.3136 4.12862 42.399 4.1284H45.6864C46.1176 4.1284 46.5002 3.85196 46.6357 3.44257L47.6188 0.471666C47.6449 0.392718 47.6958 0.323907 47.7641 0.275103C47.8325 0.2263 47.9149 0.200012 47.9994 0.200012C48.0839 0.200012 48.1662 0.2263 48.2346 0.275103C48.303 0.323907 48.3538 0.392718 48.3799 0.471666L49.3631 3.4437C49.4985 3.85315 49.8812 4.12963 50.3125 4.12963H53.5998C53.6852 4.12959 53.7684 4.15641 53.8372 4.20617C53.906 4.25593 53.9568 4.32601 53.9821 4.40615C54.0074 4.48629 54.0059 4.57227 53.9778 4.65151C53.9497 4.73075 53.8965 4.79908 53.826 4.84649L51.2117 6.6053C50.8359 6.85808 50.677 7.33181 50.8242 7.76007L51.8279 10.6803C51.8482 10.7394 51.8539 10.8023 51.8446 10.8639C51.8352 10.9256 51.8111 10.9841 51.7741 11.0348C51.7371 11.0854 51.6884 11.1267 51.632 11.1553C51.5756 11.1838 51.5131 11.1987 51.4496 11.1988Z" fill="#FFD688"/>
<path d="M65.4496 11.1988C65.3654 11.1992 65.2833 11.1734 65.2149 11.1252L62.5793 9.24898C62.2322 9.00186 61.7666 9.00186 61.4194 9.24898L58.7839 11.1252C58.7152 11.1741 58.6324 11.2003 58.5476 11.2C58.4627 11.1997 58.3801 11.1729 58.3118 11.1235C58.2435 11.0741 58.1929 11.0046 58.1674 10.9251C58.142 10.8456 58.1429 10.7603 58.1701 10.6813L59.1746 7.75979C59.3218 7.33166 59.163 6.85804 58.7875 6.60517L56.174 4.84527C56.1036 4.79791 56.0504 4.72969 56.0223 4.65057C55.9942 4.57145 55.9926 4.48558 56.0177 4.40551C56.0429 4.32543 56.0934 4.25534 56.162 4.20549C56.2306 4.15563 56.3136 4.12862 56.399 4.1284H59.6864C60.1176 4.1284 60.5002 3.85196 60.6357 3.44257L61.6188 0.471666C61.6449 0.392718 61.6958 0.323907 61.7641 0.275103C61.8325 0.2263 61.9149 0.200012 61.9994 0.200012C62.0839 0.200012 62.1662 0.2263 62.2346 0.275103C62.303 0.323907 62.3538 0.392718 62.3799 0.471666L63.3631 3.4437C63.4985 3.85315 63.8812 4.12963 64.3125 4.12963H67.5998C67.6852 4.12959 67.7684 4.15641 67.8372 4.20617C67.906 4.25593 67.9568 4.32601 67.9821 4.40615C68.0074 4.48629 68.0059 4.57227 67.9778 4.65151C67.9497 4.73075 67.8965 4.79908 67.826 4.84649L65.2117 6.6053C64.8359 6.85808 64.677 7.33181 64.8242 7.76007L65.8279 10.6803C65.8482 10.7394 65.8539 10.8023 65.8446 10.8639C65.8352 10.9256 65.8111 10.9841 65.7741 11.0348C65.7371 11.0854 65.6884 11.1267 65.632 11.1553C65.5756 11.1838 65.5131 11.1987 65.4496 11.1988Z" fill="#FFD688"/>
</svg>
