<svg width="18" height="18" viewBox="0 0 18 18" fill="none" xmlns="http://www.w3.org/2000/svg">
<rect width="18" height="18" rx="9" fill="#A85AEE"/>
<path d="M6.02344 12.6875C5.92448 12.6875 5.83464 12.6641 5.75391 12.6172C5.67578 12.5703 5.61328 12.5078 5.56641 12.4297C5.51953 12.3516 5.49609 12.263 5.49609 12.1641C5.49609 12.0208 5.55078 11.8932 5.66016 11.7812L8.51562 9V9.35156L5.66016 6.57812C5.55078 6.46875 5.49609 6.34115 5.49609 6.19531C5.49609 6.09896 5.51953 6.01042 5.56641 5.92969C5.61328 5.84896 5.67578 5.78516 5.75391 5.73828C5.83464 5.69141 5.92448 5.66797 6.02344 5.66797C6.16667 5.66797 6.28906 5.71875 6.39062 5.82031L9.39844 8.75781C9.46094 8.82031 9.50781 8.88672 9.53906 8.95703C9.57031 9.02474 9.58594 9.09896 9.58594 9.17969C9.58594 9.33333 9.52344 9.47396 9.39844 9.60156L6.39453 12.5391C6.34245 12.5885 6.28516 12.625 6.22266 12.6484C6.16276 12.6745 6.09635 12.6875 6.02344 12.6875ZM9.51562 12.6875C9.41667 12.6875 9.32682 12.6641 9.24609 12.6172C9.16797 12.5703 9.10417 12.5078 9.05469 12.4297C9.00781 12.3516 8.98438 12.263 8.98438 12.1641C8.98438 12.0208 9.04036 11.8932 9.15234 11.7812L12.0078 9V9.35156L9.15234 6.57812C9.04036 6.46875 8.98438 6.34115 8.98438 6.19531C8.98438 6.09896 9.00781 6.01042 9.05469 5.92969C9.10417 5.84896 9.16797 5.78516 9.24609 5.73828C9.32682 5.69141 9.41667 5.66797 9.51562 5.66797C9.65625 5.66797 9.77865 5.71875 9.88281 5.82031L12.8867 8.75781C12.9492 8.82031 12.9961 8.88672 13.0273 8.95703C13.0612 9.02474 13.0781 9.09896 13.0781 9.17969C13.0781 9.33333 13.0143 9.47396 12.8867 9.60156L9.88281 12.5391C9.83073 12.5885 9.77344 12.625 9.71094 12.6484C9.65104 12.6745 9.58594 12.6875 9.51562 12.6875Z" fill="white"/>
</svg>
