<svg width="46" height="45" viewBox="0 0 46 45" fill="none" xmlns="http://www.w3.org/2000/svg">
<rect x="0.5" width="45" height="45" rx="22.5" fill="#A85AEE"/>
<path d="M23.6484 15.5547C23.3906 15.2969 23.4062 14.9141 23.6484 14.6719C23.8906 14.4219 24.2812 14.4062 24.5391 14.6719L25.3672 15.5L25.6875 15.1797C25.9297 14.9375 26.3359 14.9375 26.5781 15.1797L27.9219 16.5234L28.8984 15.5469L27.9531 14.6094C27.7109 14.3672 27.7109 13.9688 27.9531 13.7266C28.2031 13.4766 28.6016 13.4766 28.8438 13.7266L31.4922 16.375C31.7422 16.6172 31.7422 17.0156 31.4922 17.2656C31.25 17.5078 30.8516 17.5078 30.6094 17.2656L29.6719 16.3281L28.6953 17.3047L29.8281 18.4375C30.0781 18.6797 30.0703 19.0781 29.8281 19.3203L29.5078 19.6406L30.3438 20.4766C30.5938 20.7188 30.5938 21.125 30.3438 21.3672C30.1016 21.6094 29.7031 21.6094 29.4609 21.3672L23.6484 15.5547ZM13.9609 31.0234C13.7344 30.8125 13.75 30.4688 13.9609 30.2578L17.0234 27.1953L16.5625 26.7266C15.8125 25.9609 15.8203 25.0312 16.625 24.2266L17.4766 23.3828L19.3828 25.2891C19.5391 25.4453 19.7578 25.4453 19.9062 25.2812C20.0391 25.1406 20.0312 24.9141 19.8984 24.7734L17.9844 22.875L19.0938 21.7578L21.0078 23.6719C21.1562 23.8203 21.375 23.8203 21.5234 23.6719C21.6641 23.5312 21.6562 23.3047 21.5156 23.1641L19.6016 21.25L20.7266 20.1328L22.6328 22.0469C22.7812 22.1875 23 22.1953 23.1484 22.0469C23.2891 21.9062 23.2891 21.6797 23.1406 21.5312L21.2344 19.625L22.3438 18.5156L24.2578 20.4297C24.4062 20.5703 24.6172 20.5703 24.7656 20.4297C24.9062 20.2969 24.9062 20.0547 24.7656 19.9141L22.8594 18L23.8594 17L28 21.1406L20.7812 28.3672C19.9766 29.1719 19.0312 29.2031 18.2734 28.4453L17.7734 27.9453L14.7188 31.0078C14.5078 31.2188 14.1719 31.2266 13.9609 31.0234Z" fill="white"/>
</svg>
