<svg width="70" height="82" viewBox="0 0 70 82" fill="none" xmlns="http://www.w3.org/2000/svg">
<path fill-rule="evenodd" clip-rule="evenodd" d="M35 81.1754C54.2773 81.1754 70 65.3681 70 45.9871C70 26.6057 54.2773 10.7989 35 10.7989C15.7226 10.7989 0 26.6057 0 45.9871C0 65.3681 15.7226 81.1754 35 81.1754Z" fill="#A85AEE"/>
<path fill-rule="evenodd" clip-rule="evenodd" d="M65.5094 53.5348L66.1469 55.3116C66.1469 55.3116 66.6291 56.7291 64.2688 57.1245C61.9086 57.5204 61.4546 52.6525 61.4546 52.6525L65.5094 53.5348Z" fill="#433A58"/>
<path fill-rule="evenodd" clip-rule="evenodd" d="M5.73367 53.1961C7.48258 52.9236 9.11991 54.1283 9.39078 55.8866C9.60389 57.2698 8.9077 58.5836 7.74977 59.2136C7.91692 59.4492 8.03346 59.726 8.08057 60.0311C8.24123 61.0756 7.52965 62.0534 6.49095 62.215C5.45241 62.3765 4.48002 61.6615 4.31936 60.6171C4.23874 60.0947 4.37648 59.5894 4.66423 59.194C3.83176 58.7271 3.2144 57.893 3.05725 56.8731C2.78638 55.1143 3.98472 53.4686 5.73367 53.1961Z" fill="white"/>
<path fill-rule="evenodd" clip-rule="evenodd" d="M54.6202 40.0861C54.6202 40.0861 55.7804 9.38884 46.3647 2.68911C46.3647 2.68911 43.5731 -0.105453 41.2753 2.68911C40.4117 -2.66019 15.782 -1.14171 20.6793 17.5314C23.9349 29.9449 24.0375 47.0355 24.0375 47.0355C24.0375 47.0355 56.2079 49.417 54.6202 40.0861Z" fill="#433A58"/>
<path fill-rule="evenodd" clip-rule="evenodd" d="M14.1921 56.3692C14.1921 56.3692 20.6583 40.1903 25.6162 37.3703C30.5739 34.5508 26.5362 58.7327 26.5362 58.7327L14.1921 56.3692Z" fill="#5B79A9"/>
<path fill-rule="evenodd" clip-rule="evenodd" d="M41.0054 33.0044L44.4682 33.7827C44.4682 33.7827 55.3045 35.2883 58.3547 38.2913C55.7987 51.8859 57.3317 63.087 58.3757 72.1928C52.5801 77.4328 45.0346 80.7535 36.7274 81.1635H33.2403C28.4005 80.9246 23.8194 79.6975 19.6919 77.6788C20.7695 65.9877 23.1534 42.9014 25.6162 37.3711L36.3452 34.026L41.0054 33.0044Z" fill="#75A8BD"/>
<path fill-rule="evenodd" clip-rule="evenodd" d="M40.4962 21.9728C40.4962 21.9728 41.0032 28.4301 44.4681 33.7828C44.4681 33.7828 41.9668 41.5545 39.4197 41.6246C36.8727 41.6946 36.1002 35.2222 36.1002 35.2222C36.1002 35.2222 36.275 33.7141 34.2743 30.6414C32.274 27.5692 40.4962 21.9728 40.4962 21.9728Z" fill="#FFC195"/>
<path fill-rule="evenodd" clip-rule="evenodd" d="M40.4962 21.9731C40.4962 21.9731 40.7228 24.8575 41.9074 28.3689C41.258 30.8811 39.7203 35.0012 36.3789 36.8244C36.1818 35.9055 36.1006 35.2225 36.1006 35.2225C36.1006 35.2225 36.275 33.7144 34.2743 30.6417C32.274 27.5695 40.4962 21.9731 40.4962 21.9731Z" fill="#D16E5B"/>
<path d="M40.4962 21.9731C40.4962 21.9731 40.7228 24.8575 41.9074 28.3689C41.258 30.8811 39.7203 35.0012 36.3789 36.8244C36.1818 35.9055 36.1006 35.2225 36.1006 35.2225C36.1006 35.2225 36.275 33.7144 34.2743 30.6417C32.274 27.5695 40.4962 21.9731 40.4962 21.9731Z" stroke="#D16E5B" stroke-width="0.288" stroke-miterlimit="2.6131"/>
<path fill-rule="evenodd" clip-rule="evenodd" d="M23.9645 14.7362C23.9645 14.7362 23.7542 24.5889 25.5959 27.7677C27.4371 30.9465 33.7911 32.2351 36.192 31.9394C38.5932 31.6441 43.8306 26.9644 44.0751 23.5682C44.0751 23.5682 47.6828 24.7445 48.8597 21.5442C50.0366 18.3439 45.299 14.7697 43.4586 20.6236C43.4586 20.6236 42.271 16.6858 42.1595 14.1087C42.1595 14.1087 35.6238 17.3954 30.1449 12.5506C30.1449 12.5506 27.3328 10.8908 23.9645 14.7362Z" fill="#FFC195"/>
<path fill-rule="evenodd" clip-rule="evenodd" d="M45.1925 21.6766C45.1762 21.8055 45.0591 21.8966 44.9308 21.8803C44.8026 21.8644 44.712 21.7466 44.7282 21.6177C44.7291 21.61 45.0433 18.9693 47.1778 18.7849C47.3073 18.7741 47.4206 18.8708 47.4313 19.0006C47.4416 19.1304 47.3454 19.2448 47.2167 19.2551C46.7225 19.2981 46.3463 19.5082 46.0607 19.7885C47.4894 20.3429 46.9722 21.5081 46.9705 21.5115C46.92 21.6315 46.7823 21.6873 46.6631 21.6362C46.5442 21.5855 46.4887 21.4471 46.5391 21.3272C46.5404 21.325 46.8884 20.5458 45.7439 20.1757C45.2899 20.86 45.1929 21.6727 45.1925 21.6766Z" fill="#D16E5B"/>
<path fill-rule="evenodd" clip-rule="evenodd" d="M28.0542 17.8237C28.6181 17.8237 29.0798 18.2875 29.0798 18.8544V19.4729C29.0798 20.0402 28.6181 20.504 28.0542 20.504C27.4903 20.504 27.0291 20.0402 27.0291 19.4729V18.8544C27.0291 18.2875 27.4903 17.8237 28.0542 17.8237Z" fill="#433A58"/>
<path fill-rule="evenodd" clip-rule="evenodd" d="M36.7941 17.8237C37.358 17.8237 37.8193 18.2875 37.8193 18.8544V19.4729C37.8193 20.0402 37.358 20.504 36.7941 20.504C36.2298 20.504 35.7686 20.0402 35.7686 19.4729V18.8544C35.7686 18.2875 36.2298 17.8237 36.7941 17.8237Z" fill="#433A58"/>
<path fill-rule="evenodd" clip-rule="evenodd" d="M31.6667 20.0905C31.6667 19.9599 31.7719 19.8541 31.9014 19.8541C32.0309 19.8541 32.1361 19.9599 32.1361 20.0905V21.3701C32.1361 21.5007 32.0309 21.606 31.9014 21.606C31.8689 21.606 31.8377 21.5996 31.8095 21.5875C30.9028 21.2562 30.3017 21.3645 29.9648 21.6675C29.6621 21.9404 29.5655 22.3792 29.6523 22.791C29.74 23.2057 30.0148 23.5895 30.4539 23.7473C31.0327 23.9553 31.8993 23.7842 33.024 22.8318C33.1228 22.748 33.2703 22.7609 33.3532 22.8602C33.4361 22.9595 33.4233 23.1082 33.325 23.1915C32.0476 24.2734 31.0139 24.45 30.2961 24.1921C29.6904 23.9742 29.3124 23.4516 29.1936 22.8885C29.0739 22.3221 29.2171 21.71 29.6532 21.3172C30.0649 20.9458 30.73 20.7769 31.6667 21.0451V20.0905Z" fill="#D16E5B"/>
<path fill-rule="evenodd" clip-rule="evenodd" d="M30.4299 26.8418C30.4299 26.8418 35.884 23.7622 38.2703 24.8539C40.6356 25.9357 38.8303 29.7167 35.5321 30.1353C32.2344 30.554 29.9678 28.0895 30.4299 26.8418Z" fill="#D16E5B"/>
<path fill-rule="evenodd" clip-rule="evenodd" d="M27.1744 14.1973C28.0217 13.9944 28.8242 14.318 28.9669 14.9202C29.1097 15.5228 28.5386 16.1756 27.6913 16.3785C26.844 16.5814 26.0416 16.2577 25.8992 15.6551C25.756 15.053 26.3271 14.4001 27.1744 14.1973Z" fill="#433A58"/>
<path fill-rule="evenodd" clip-rule="evenodd" d="M36.5383 14.1973C35.691 13.9944 34.8885 14.318 34.7458 14.9202C34.603 15.5228 35.1741 16.1756 36.0214 16.3785C36.8687 16.5814 37.6712 16.2577 37.8139 15.6551C37.9567 15.053 37.3856 14.4001 36.5383 14.1973Z" fill="#433A58"/>
<path fill-rule="evenodd" clip-rule="evenodd" d="M30.9172 26.8128C30.9172 26.8128 35.1764 24.5988 37.0006 24.91C38.8252 25.2212 37.7769 26.7491 35.2897 27.4979C32.8025 28.2461 31.361 27.3543 30.9172 26.8128Z" fill="white"/>
<path fill-rule="evenodd" clip-rule="evenodd" d="M29.917 35.6713C29.917 35.6713 29.4767 48.7815 28.8996 54.9693C28.8996 54.9693 22.9368 55.5496 22.1677 57.0324C21.6555 58.0192 20.4629 69.8748 19.7224 77.6929C23.8418 79.7035 28.4126 80.9249 33.2404 81.1635H36.7275C45.2216 80.7445 52.9192 77.2815 58.7644 71.8363C58.2206 65.9714 57.5653 59.7688 57.0271 57.2407L49.1657 55.7915C47.6592 55.5138 49.5116 34.2916 49.7497 34.2916C49.9878 34.2916 47.4673 33.8665 47.4673 33.8665C47.4673 33.8665 46.3288 46.3879 46.2869 55.6708C46.2869 55.6708 38.6487 54.9637 31.0448 55.0828L32.5308 34.8525C32.5308 34.8525 30.3928 35.5634 29.917 35.6713Z" fill="#433A58"/>
<path fill-rule="evenodd" clip-rule="evenodd" d="M42.052 55.3488C42.052 55.3488 38.5816 51.4032 36.0383 51.6224C33.4947 51.8416 36.3107 55.4219 36.3107 55.4219L42.052 55.3488Z" fill="#D16E5B"/>
<path fill-rule="evenodd" clip-rule="evenodd" d="M39.1077 64.007C39.1077 64.007 38.5459 52.1862 37.9047 50.1769C37.263 48.1676 32.5609 48.3988 31.7465 50.1167C30.9321 51.8351 32.4801 64.1067 32.4801 64.1067C32.4801 64.1067 32.4946 65.823 36.1028 65.6209C39.7109 65.4189 39.1077 64.007 39.1077 64.007Z" fill="white"/>
<path fill-rule="evenodd" clip-rule="evenodd" d="M42.7664 56.9425L42.3855 54.981C42.3855 54.981 39.3459 53.2975 36.1829 53.8403C33.0193 54.3831 30.6796 56.6328 30.6796 56.6328C30.6796 56.6328 28.4455 58.7366 30.8707 61.5019C33.2964 64.2673 38.9155 62.8575 38.8637 59.6332L42.7664 56.9425Z" fill="#FFC195"/>
<path fill-rule="evenodd" clip-rule="evenodd" d="M63.8867 48.6263C63.8867 48.6263 65.1059 56.0093 65.99 62.3511C64.8747 64.4863 63.5494 66.4931 62.039 68.3416L56.3742 68.0717C56.3742 68.0717 55.9022 54.4114 55.4551 50.8161C55.0079 47.2208 62.4747 44.8513 63.8867 48.6263Z" fill="#FFC195"/>
<path fill-rule="evenodd" clip-rule="evenodd" d="M63.8867 48.6265C63.8867 48.6265 64.5267 52.5016 65.2154 57.0477C62.6914 55.7693 59.0893 54.9837 55.9604 58.214C55.8078 55.1552 55.6295 52.2192 55.4551 50.8163C55.0079 47.2211 62.4747 44.8516 63.8867 48.6265Z" fill="#D16E5B"/>
<path fill-rule="evenodd" clip-rule="evenodd" d="M66.1471 55.311C66.1471 55.311 62.9908 37.6758 57.3157 37.491C51.6411 37.3057 55.271 56.0321 55.271 56.0321C55.4369 53.8874 63.1879 52.1373 66.1471 55.311Z" fill="#75A8BD"/>
<path fill-rule="evenodd" clip-rule="evenodd" d="M37.3159 50.4372C37.3159 50.4372 37.2415 48.6097 36.6657 47.4385C36.0898 46.2673 32.2594 46.814 32.1299 47.9827C32.0008 49.1513 32.12 50.5825 32.12 50.5825L37.3159 50.4372Z" fill="white"/>
<path fill-rule="evenodd" clip-rule="evenodd" d="M8.63995 62.9992C8.63995 62.9992 8.34335 65.4694 8.46091 68.9773C14.5249 76.0532 23.3419 80.6748 33.2402 81.1635H36.7274C41.9716 80.9048 46.9113 79.4856 51.2996 77.1564C50.5212 74.0602 48.2306 71.1164 42.7847 69.846C28.9981 66.6294 24.1994 73.0622 24.1994 73.0622C24.1994 73.0622 24.7325 69.463 26.2562 66.1698C27.7793 62.8772 8.63995 62.9992 8.63995 62.9992Z" fill="#E8A327"/>
<path fill-rule="evenodd" clip-rule="evenodd" d="M36.8395 68.9772C35.0226 68.8888 33.431 68.9918 32.0476 69.2153C32.4507 70.686 32.9796 73.2786 32.5097 75.5557C31.8061 78.9649 36.7771 77.3471 37.0519 73.1759C37.1648 71.461 37.0336 70.0474 36.8395 68.9772ZM41.7942 69.6283C42.1247 70.7102 42.4658 72.0916 42.6817 73.6904C43.2204 77.6802 37.308 78.836 38.5234 75.1052C39.2151 72.9829 39.1193 70.7154 38.909 69.1544C39.8204 69.2635 40.7823 69.4203 41.7942 69.6283ZM46.6079 71.2478C45.9684 70.9009 45.251 70.5898 44.4529 70.3195C44.6346 71.3566 44.7534 73.2502 43.5773 74.5269C41.8853 76.3629 47.7515 77.8917 46.7122 71.6966C46.6861 71.5409 46.6498 71.3927 46.6079 71.2478Z" fill="#BF7B46"/>
<path fill-rule="evenodd" clip-rule="evenodd" d="M24.4853 71.5825C24.785 70.2295 25.3425 68.1444 26.2565 66.169C27.4082 63.6797 16.7481 63.1419 11.4795 63.0281C11.4611 63.375 11.5221 63.7725 11.6874 64.2453C12.546 66.7024 12.0175 68.2631 12.0175 68.2631C12.0175 68.2631 18.7715 73.5596 24.4853 71.5825Z" fill="#BF7B46"/>
<path fill-rule="evenodd" clip-rule="evenodd" d="M11.7556 51.2919C13.7747 50.737 17.2019 50.0115 19.3292 49.9845C19.7582 45.7337 23.4941 45.1948 23.4941 45.1948C24.8587 47.3386 24.9771 49.3737 25.087 51.4247C30.4803 55.356 33.5314 68.3296 19.7991 70.0122C15.4835 70.5409 11.4578 70.7666 8.7579 69.3165C7.65306 68.0602 6.63642 66.7234 5.71695 65.3167C5.24187 63.5446 5.21045 61.2035 5.7435 58.1326L5.74333 58.1321C3.04489 49.9939 8.86157 46.6905 8.86157 46.6905C10.3445 48.1037 11.2649 49.6832 11.7556 51.2919Z" fill="#E8A327"/>
<path fill-rule="evenodd" clip-rule="evenodd" d="M19.3293 49.9844C19.4212 49.074 19.665 48.3348 19.9908 47.7339C20.9717 51.1461 23.6191 50.3132 24.9576 49.6289C25.0221 50.2285 25.0551 50.8259 25.0871 51.4246C22.9556 50.0815 19.3293 49.9844 19.3293 49.9844Z" fill="#BF7B46"/>
<path fill-rule="evenodd" clip-rule="evenodd" d="M17.3743 50.1424C18.0072 50.0603 18.6073 50.0053 19.1374 49.989C19.3618 51.0596 19.4391 52.2553 18.7134 52.3989C17.9351 52.5527 17.5557 51.2595 17.3743 50.1424ZM13.8267 50.7819C14.2109 52.3013 15.1928 55.4096 16.6856 54.8363C17.9514 54.3502 17.3814 51.8981 16.8177 50.2198C15.8273 50.3672 14.7856 50.5688 13.8267 50.7819ZM12.0024 51.2255C12.4458 51.1069 12.9458 50.9831 13.4777 50.8606C13.8155 51.8388 14.3101 53.6758 13.3796 53.95C12.5562 54.1928 12.1718 52.4771 12.0024 51.2255Z" fill="#BF7B46"/>
<path fill-rule="evenodd" clip-rule="evenodd" d="M20.7765 62.0835C20.6385 61.9074 21.0228 61.4682 21.4727 61.5322C21.5632 61.5451 21.6261 61.6297 21.6134 61.7204C21.0575 65.6514 26.4482 64.0688 25.6373 61.8171C25.5505 61.6917 25.7638 61.3865 25.9728 61.711C26.7411 63.7754 23.1577 65.464 21.7555 63.8922C21.4698 66.2299 16.7364 66.5506 16.9787 63.7341C17.041 63.4611 17.3192 63.5685 17.3175 63.8076C17.1928 66.6804 23.3347 65.3596 20.7765 62.0835Z" fill="#433A58"/>
<path fill-rule="evenodd" clip-rule="evenodd" d="M18.8414 60.7845C18.8414 60.7845 21.5231 59.6416 22.6313 60.1982C23.739 60.7553 22.456 61.8395 21.4943 62.2792C20.5322 62.7189 18.2543 61.6526 18.8414 60.7845Z" fill="#433A58"/>
<path fill-rule="evenodd" clip-rule="evenodd" d="M20.8386 66.2043C20.8386 66.2043 22.3548 66.3968 23.6428 65.4426C24.9309 64.4881 23.1653 69.0766 20.8386 66.2043Z" fill="#BF7B46"/>
<path fill-rule="evenodd" clip-rule="evenodd" d="M14.8697 57.2816C15.377 57.1841 15.8714 57.5215 15.9685 58.0315L16.0172 58.2886C16.1141 58.7983 15.7783 59.2956 15.2711 59.3932C14.7638 59.4904 14.2692 59.1529 14.1723 58.6429L14.1234 58.3861C14.0264 57.8761 14.3622 57.3788 14.8697 57.2816Z" fill="#433A58"/>
<path fill-rule="evenodd" clip-rule="evenodd" d="M22.7117 55.569C23.2192 55.4713 23.7134 55.8088 23.8104 56.319L23.8591 56.576C23.9562 57.0857 23.6202 57.583 23.1132 57.6806C22.6057 57.7776 22.1111 57.4403 22.014 56.9301L21.9653 56.6736C21.8687 56.1634 22.2043 55.6666 22.7117 55.569Z" fill="#433A58"/>
<path fill-rule="evenodd" clip-rule="evenodd" d="M10.2297 52.3333C10.2297 52.3333 9.95218 49.3406 8.46379 47.7056C8.74231 47.7314 3.53965 49.6122 5.97992 56.9192C5.97992 56.9192 7.19313 53.535 10.2297 52.3333Z" fill="#BF7B46"/>
<path fill-rule="evenodd" clip-rule="evenodd" d="M8.47942 53.9041C8.47942 53.9041 9.17313 50.7657 8.03807 50.7025C6.90284 50.6389 7.81748 53.3492 7.81748 53.3492C7.81748 53.3492 6.87146 52.0181 6.27227 52.6521C5.67326 53.2861 7.88041 54.4908 7.88041 54.4908L8.47942 53.9041Z" fill="#E8A327"/>
<path fill-rule="evenodd" clip-rule="evenodd" d="M11.0567 62.2512C11.8992 62.0715 12.6836 62.4058 12.8085 62.9981C12.9334 63.5904 12.3516 64.2162 11.5087 64.3958C10.6664 64.5754 9.88211 64.2407 9.75736 63.6489C9.63244 63.0565 10.2142 62.4308 11.0567 62.2512Z" fill="#BF7B46"/>
<path fill-rule="evenodd" clip-rule="evenodd" d="M27.4864 58.1565C28.1964 58.0052 28.8578 58.2871 28.9629 58.7861C29.0681 59.2855 28.5778 59.8129 27.8677 59.9647C27.1572 60.1159 26.4958 59.8339 26.3907 59.3346C26.2855 58.8351 26.7758 58.3077 27.4864 58.1565Z" fill="#BF7B46"/>
<path fill-rule="evenodd" clip-rule="evenodd" d="M32.441 79.0072C33.6521 79.0226 34.6396 79.9948 34.6939 81.1996L34.2613 81.2C32.8916 81.1716 31.5415 81.0638 30.215 80.8815C30.3881 79.8048 31.3188 78.9925 32.441 79.0072ZM14.8923 74.8325C15.6184 74.6193 16.3894 74.5088 17.1881 74.5191C20.1107 74.557 22.6606 76.1945 24.0136 78.5924C24.5955 78.1497 25.3231 77.891 26.114 77.9012C27.8017 77.9232 29.2061 79.1614 29.5019 80.7762C24.1278 79.9257 19.1602 77.8467 14.8923 74.8325Z" fill="#E8A327"/>
<path fill-rule="evenodd" clip-rule="evenodd" d="M40.4895 80.7738C40.8362 79.3404 42.1247 78.289 43.6616 78.3089C44.6149 78.3213 45.4725 78.7433 46.0693 79.4062C44.2699 80.0101 42.4056 80.4691 40.4895 80.7738Z" fill="#E8A327"/>
<path fill-rule="evenodd" clip-rule="evenodd" d="M9.73169 47.612C9.73169 47.612 11.2151 44.7061 14.9534 46.3196C14.9534 46.3196 16.2394 44.8424 18.2822 45.5864C20.3251 46.3303 20.1651 48.6706 20.1651 48.6706C20.1651 48.6706 21.9385 47.6081 22.8666 49.4791C23.7943 51.3496 22.5118 52.9781 20.5744 52.608C18.6371 52.238 19.6087 49.9458 19.6464 49.9944C19.6842 50.043 14.9925 50.4732 11.689 51.2864C11.3297 50.0606 10.6036 48.8357 9.73169 47.612Z" fill="white"/>
<path fill-rule="evenodd" clip-rule="evenodd" d="M22.2749 44.4505C23.0727 44.4784 23.719 45.1515 23.719 45.953C23.719 46.7551 23.0727 47.3821 22.2749 47.3542C21.4775 47.3263 20.8311 46.6532 20.8311 45.8512C20.8311 45.0492 21.4775 44.4221 22.2749 44.4505Z" fill="white"/>
<path fill-rule="evenodd" clip-rule="evenodd" d="M19.1198 42.3504C19.51 42.3641 19.8262 42.6934 19.8262 43.0854C19.8262 43.4778 19.51 43.7842 19.1198 43.7709C18.7297 43.7567 18.4136 43.4279 18.4136 43.0359C18.4136 42.6435 18.7297 42.3366 19.1198 42.3504Z" fill="white"/>
<path fill-rule="evenodd" clip-rule="evenodd" d="M47.9684 70.5362C48.5584 70.675 48.9247 71.269 48.7862 71.8621C48.6477 72.4557 48.0573 72.8235 47.467 72.6847C46.877 72.5455 46.5106 71.952 46.6492 71.3583C46.7877 70.7648 47.378 70.397 47.9684 70.5362ZM40.0002 66.2162C41.2695 66.5153 42.2181 67.4656 42.5785 68.6329C43.0145 68.3244 43.5741 68.1971 44.1342 68.3291C45.1743 68.5745 45.8202 69.6215 45.5761 70.6673C45.332 71.7129 44.291 72.3623 43.2505 72.117C42.8431 72.0207 42.4968 71.8019 42.2399 71.5084C41.4708 72.8108 39.9254 73.5224 38.3808 73.1584C36.4742 72.7088 35.2908 70.7902 35.738 68.8732C36.1852 66.9559 38.0936 65.7667 40.0002 66.2162Z" fill="white"/>
</svg>
