<svg width="46" height="45" viewBox="0 0 46 45" fill="none" xmlns="http://www.w3.org/2000/svg">
<rect x="0.5" width="45" height="45" rx="22.5" fill="#A85AEE"/>
<path d="M14.7812 21.6016C14.7812 21.0911 14.862 20.6302 15.0234 20.2188C15.1901 19.8021 15.4141 19.474 15.6953 19.2344C15.9818 18.9896 16.2995 18.8672 16.6484 18.8672C17.0026 18.8672 17.3203 18.9896 17.6016 19.2344C17.888 19.474 18.112 19.8021 18.2734 20.2188C18.4401 20.6302 18.5234 21.0911 18.5234 21.6016C18.5234 22.1172 18.4401 22.5807 18.2734 22.9922C18.112 23.4036 17.888 23.7318 17.6016 23.9766C17.3203 24.2161 17.0026 24.3359 16.6484 24.3359C16.2995 24.3359 15.9818 24.2161 15.6953 23.9766C15.4141 23.7318 15.1901 23.4036 15.0234 22.9922C14.862 22.5807 14.7812 22.1172 14.7812 21.6016ZM18.5703 17.0938C18.5703 16.5781 18.6536 16.1146 18.8203 15.7031C18.987 15.2917 19.2109 14.9661 19.4922 14.7266C19.7786 14.4818 20.0964 14.3594 20.4453 14.3594C20.7995 14.3594 21.1172 14.4818 21.3984 14.7266C21.6849 14.9661 21.9115 15.2917 22.0781 15.7031C22.2448 16.1146 22.3281 16.5781 22.3281 17.0938C22.3281 17.6042 22.2448 18.0677 22.0781 18.4844C21.9115 18.8958 21.6849 19.2214 21.3984 19.4609C21.1172 19.7005 20.7995 19.8203 20.4453 19.8203C20.0964 19.8203 19.7786 19.7005 19.4922 19.4609C19.2109 19.2214 18.987 18.8958 18.8203 18.4844C18.6536 18.0677 18.5703 17.6042 18.5703 17.0938ZM23.6797 17.0938C23.6797 16.5781 23.7604 16.1146 23.9219 15.7031C24.0885 15.2917 24.3125 14.9661 24.5938 14.7266C24.8802 14.4818 25.2005 14.3594 25.5547 14.3594C25.9036 14.3594 26.2188 14.4818 26.5 14.7266C26.7865 14.9661 27.013 15.2917 27.1797 15.7031C27.3464 16.1146 27.4297 16.5781 27.4297 17.0938C27.4297 17.6042 27.3464 18.0677 27.1797 18.4844C27.013 18.8958 26.7865 19.2214 26.5 19.4609C26.2188 19.7005 25.9036 19.8203 25.5547 19.8203C25.2005 19.8203 24.8802 19.7005 24.5938 19.4609C24.3125 19.2214 24.0885 18.8958 23.9219 18.4844C23.7604 18.0677 23.6797 17.6042 23.6797 17.0938ZM27.4766 21.6016C27.4766 21.0911 27.5599 20.6302 27.7266 20.2188C27.8932 19.8021 28.1172 19.474 28.3984 19.2344C28.6797 18.9896 28.9974 18.8672 29.3516 18.8672C29.7005 18.8672 30.0156 18.9896 30.2969 19.2344C30.5833 19.474 30.8073 19.8021 30.9688 20.2188C31.1354 20.6302 31.2188 21.0911 31.2188 21.6016C31.2188 22.1172 31.1354 22.5807 30.9688 22.9922C30.8073 23.4036 30.5833 23.7318 30.2969 23.9766C30.0156 24.2161 29.7005 24.3359 29.3516 24.3359C28.9974 24.3359 28.6797 24.2161 28.3984 23.9766C28.1172 23.7318 27.8932 23.4036 27.7266 22.9922C27.5599 22.5807 27.4766 22.1172 27.4766 21.6016ZM17.125 27.6484C17.125 27.2005 17.2031 26.8177 17.3594 26.5C17.5156 26.1823 17.7135 25.9062 17.9531 25.6719C18.1927 25.4323 18.4427 25.2057 18.7031 24.9922C18.9167 24.8203 19.1224 24.6458 19.3203 24.4688C19.5234 24.2865 19.6953 24.0859 19.8359 23.8672C19.9505 23.6953 20.0547 23.5182 20.1484 23.3359C20.2474 23.1484 20.3385 22.9635 20.4219 22.7812C20.6094 22.3854 20.7995 22.0104 20.9922 21.6562C21.1901 21.2969 21.4427 21.0078 21.75 20.7891C22.0573 20.5651 22.474 20.4531 23 20.4531C23.526 20.4531 23.9427 20.5651 24.25 20.7891C24.5573 21.0078 24.8073 21.2969 25 21.6562C25.1979 22.0104 25.3906 22.388 25.5781 22.7891C25.6615 22.9714 25.75 23.1562 25.8438 23.3438C25.9427 23.526 26.0521 23.7057 26.1719 23.8828C26.3125 24.1016 26.4818 24.2995 26.6797 24.4766C26.8776 24.6484 27.0833 24.8203 27.2969 24.9922C27.5521 25.2057 27.7995 25.4323 28.0391 25.6719C28.2839 25.9062 28.4844 26.1823 28.6406 26.5C28.7969 26.8177 28.875 27.2005 28.875 27.6484C28.875 28.1745 28.763 28.6406 28.5391 29.0469C28.3203 29.4531 28.013 29.7708 27.6172 30C27.2214 30.2344 26.763 30.3516 26.2422 30.3516C25.8568 30.3516 25.5156 30.3073 25.2188 30.2188C24.9219 30.1302 24.6406 30.0391 24.375 29.9453C24.151 29.8672 23.9297 29.7969 23.7109 29.7344C23.4922 29.6771 23.2552 29.6484 23 29.6484C22.7448 29.6484 22.5052 29.6771 22.2812 29.7344C22.0625 29.7969 21.8438 29.8672 21.625 29.9453C21.3542 30.0391 21.0703 30.1302 20.7734 30.2188C20.4766 30.3073 20.1354 30.3516 19.75 30.3516C19.2292 30.3516 18.7708 30.2344 18.375 30C17.9844 29.7708 17.6771 29.4531 17.4531 29.0469C17.2344 28.6406 17.125 28.1745 17.125 27.6484Z" fill="white"/>
</svg>
